<?xml version="1.0" encoding="UTF-8" standalone="no"?>
<!DOCTYPE svg PUBLIC "-//W3C//DTD SVG 1.1//EN" "http://www.w3.org/Graphics/SVG/1.1/DTD/svg11.dtd">
<svg width="100%" height="100%" viewBox="0 0 805 294" version="1.1" xmlns="http://www.w3.org/2000/svg" xmlns:xlink="http://www.w3.org/1999/xlink" xml:space="preserve" xmlns:serif="http://www.serif.com/" style="fill-rule:evenodd;clip-rule:evenodd;stroke-linejoin:round;stroke-miterlimit:2;">
    <g>
        <path d="M501.12,294L427.259,294C420.432,294 414.897,288.465 414.897,281.638L414.897,26.599C414.897,19.772 420.432,14.237 427.259,14.237L501.12,14.237C507.947,14.237 513.482,19.772 513.482,26.599C513.482,33.427 507.947,38.962 501.12,38.962L439.622,38.962L439.622,269.275L501.12,269.275C507.947,269.275 513.482,274.811 513.482,281.638C513.482,288.465 507.947,294 501.12,294Z" style="fill:rgb(217,6,153);fill-rule:nonzero;"/>
        <path d="M791.906,294L718.046,294C711.219,294 705.683,288.465 705.683,281.638C705.683,274.811 711.219,269.275 718.046,269.275L779.543,269.275L779.543,38.962L718.046,38.962C711.219,38.962 705.683,33.427 705.683,26.599C705.683,19.772 711.219,14.237 718.046,14.237L791.906,14.237C798.733,14.237 804.268,19.772 804.268,26.599L804.268,281.638C804.268,288.465 798.733,294 791.906,294Z" style="fill:rgb(217,6,153);fill-rule:nonzero;"/>
        <path d="M508.804,111.693L476.988,111.693L476.988,67.36L488.854,67.36L488.854,102.371L507.695,102.371L508.804,111.693Z" style="fill:rgb(4,30,66);fill-rule:nonzero;"/>
        <path d="M514.672,111.693L514.672,67.36L544.075,67.36L545.184,76.682L526.538,76.682L526.538,84.768L540.163,84.768L541.271,94.09L526.538,94.09L526.538,102.371L546.031,102.371L547.139,111.693L514.672,111.693Z" style="fill:rgb(4,30,66);fill-rule:nonzero;"/>
        <path d="M553.657,111.693L553.657,67.36L583.061,67.36L584.17,76.682L565.523,76.682L565.523,84.768L579.148,84.768L580.257,94.09L565.523,94.09L565.523,102.371L585.016,102.371L586.125,111.693L553.657,111.693Z" style="fill:rgb(4,30,66);fill-rule:nonzero;"/>
        <path d="M612.136,76.682L604.509,76.682L604.509,102.371L611.68,102.371C614.55,102.371 616.885,101.241 618.688,98.981C620.492,96.721 621.394,93.485 621.394,89.267C621.394,85.526 620.58,82.497 618.948,80.173C617.32,77.849 615.049,76.682 612.136,76.682ZM612.462,111.693L592.643,111.693L592.643,67.36L612.722,67.36C617.158,67.36 620.949,68.294 624.1,70.167C627.252,72.034 629.631,74.618 631.239,77.923C632.847,81.224 633.65,85.006 633.65,89.267C633.65,93.787 632.759,97.74 630.979,101.13C629.196,104.52 626.697,107.13 623.482,108.956C620.264,110.781 616.593,111.693 612.462,111.693Z" style="fill:rgb(4,30,66);fill-rule:nonzero;"/>
        <path d="M637.76,108.956L641.672,100.021C642.845,100.722 644.463,101.358 646.527,101.947C648.591,102.536 650.408,102.828 651.973,102.828C653.711,102.828 655.101,102.467 656.144,101.751C657.189,101.034 657.709,100.244 657.709,99.374C657.709,98.806 657.329,98.255 656.568,97.708C655.807,97.167 654.581,96.398 652.886,95.395L650.864,94.222C647.907,92.482 645.604,91.039 643.954,89.888C642.301,88.736 640.824,87.245 639.521,85.42C638.216,83.595 637.563,81.531 637.563,79.229C637.563,76.793 638.248,74.607 639.617,72.676C640.988,70.74 642.911,69.228 645.386,68.145C647.864,67.058 650.756,66.511 654.058,66.511C656.319,66.511 658.632,66.84 661.001,67.493C663.37,68.145 665.402,69.037 667.097,70.167L663.577,78.183C661.271,77.403 659.502,76.878 658.263,76.618C657.024,76.358 655.666,76.226 654.188,76.226C652.886,76.226 651.83,76.533 651.026,77.138C650.222,77.748 649.822,78.486 649.822,79.356C649.822,80.009 650.156,80.587 650.83,81.086C651.504,81.584 652.623,82.248 654.188,83.075L656.536,84.375C659.274,85.94 661.555,87.389 663.38,88.71C665.208,90.036 666.76,91.601 668.044,93.405C669.325,95.209 669.967,97.241 669.967,99.501C669.967,102.021 669.248,104.26 667.816,106.218C666.381,108.17 664.328,109.714 661.653,110.844C658.979,111.975 655.862,112.542 652.297,112.542C649.994,112.542 647.418,112.192 644.572,111.497C641.726,110.802 639.455,109.953 637.76,108.956Z" style="fill:rgb(4,30,66);fill-rule:nonzero;"/>
        <path d="M496.481,141.877L488.854,141.877L488.854,167.567L496.025,167.567C498.895,167.567 501.23,166.437 503.034,164.177C504.838,161.916 505.74,158.68 505.74,154.462C505.74,150.722 504.925,147.692 503.294,145.368C501.665,143.044 499.394,141.877 496.481,141.877ZM496.808,176.889L476.988,176.889L476.988,132.555L497.068,132.555C501.503,132.555 505.294,133.489 508.445,135.362C511.597,137.229 513.977,139.813 515.584,143.119C517.192,146.419 517.995,150.202 517.995,154.462C517.995,158.982 517.104,162.935 515.323,166.325C513.542,169.716 511.043,172.326 507.827,174.151C504.609,175.976 500.938,176.889 496.808,176.889Z" style="fill:rgb(4,30,66);fill-rule:nonzero;"/>
        <rect x="525.169" y="132.555" width="11.866" height="44.334" style="fill:rgb(4,30,66);fill-rule:nonzero;"/>
        <path d="M564.743,160.001L565.786,151.332L583.064,151.332L583.064,174.475C581.454,175.478 579.14,176.268 576.119,176.857C573.097,177.441 570.349,177.738 567.871,177.738C563.091,177.738 558.918,176.836 555.355,175.032C551.79,173.228 549.042,170.607 547.108,167.174C545.174,163.742 544.205,159.656 544.205,154.918C544.205,150.223 545.282,146.116 547.434,142.599C549.585,139.076 552.495,136.38 556.17,134.513C559.841,132.645 563.873,131.706 568.264,131.706C570.654,131.706 573.227,132.035 575.989,132.688C578.748,133.34 580.955,134.232 582.608,135.362L579.085,143.379C576.912,142.641 574.999,142.132 573.349,141.845C571.697,141.564 570.044,141.421 568.394,141.421C566.524,141.421 564.667,141.935 562.82,142.954C560.971,143.978 559.451,145.495 558.255,147.517C557.061,149.538 556.464,151.984 556.464,154.855C556.464,157.852 557.026,160.341 558.159,162.32C559.287,164.293 560.743,165.742 562.526,166.654C564.308,167.567 566.197,168.023 568.197,168.023C569.503,168.023 570.893,167.891 572.37,167.631L572.37,160.001L564.743,160.001Z" style="fill:rgb(4,30,66);fill-rule:nonzero;"/>
        <rect x="590.884" y="132.555" width="11.866" height="44.334" style="fill:rgb(4,30,66);fill-rule:nonzero;"/>
        <path d="M647.67,141.877L633.523,141.877L633.523,176.889L621.657,176.889L621.657,141.877L608.618,141.877L608.618,132.555L646.562,132.555L647.67,141.877Z" style="fill:rgb(4,30,66);fill-rule:nonzero;"/>
        <path d="M671.334,146.769L667.097,158.829L675.766,158.829L671.334,146.769ZM677.462,132.555L694.023,176.369L682.353,177.541L679.157,168.15L663.837,168.15L660.773,176.889L648.973,176.889L665.598,132.555L677.462,132.555Z" style="fill:rgb(4,30,66);fill-rule:nonzero;"/>
        <path d="M731.706,176.889L699.891,176.889L699.891,132.555L711.757,132.555L711.757,167.567L730.597,167.567L731.706,176.889Z" style="fill:rgb(4,30,66);fill-rule:nonzero;"/>
        <path d="M504.371,242.084L504.371,224.74L488.854,224.74L488.854,242.084L476.988,242.084L476.988,197.751L488.854,197.358L488.854,215.418L504.371,215.418L504.371,197.751L516.237,197.751L516.237,242.084L504.371,242.084Z" style="fill:rgb(4,30,66);fill-rule:nonzero;"/>
        <path d="M526.668,242.084L526.668,197.751L556.071,197.751L557.18,207.073L538.534,207.073L538.534,215.158L552.159,215.158L553.267,224.48L538.534,224.48L538.534,232.762L558.027,232.762L559.135,242.084L526.668,242.084Z" style="fill:rgb(4,30,66);fill-rule:nonzero;"/>
        <path d="M583.451,211.964L579.215,224.024L587.884,224.024L583.451,211.964ZM589.579,197.751L606.141,241.564L594.471,242.737L591.274,233.346L575.954,233.346L572.89,242.084L561.091,242.084L577.716,197.751L589.579,197.751Z" style="fill:rgb(4,30,66);fill-rule:nonzero;"/>
        <path d="M643.824,242.084L612.009,242.084L612.009,197.751L623.875,197.751L623.875,232.762L642.715,232.762L643.824,242.084Z" style="fill:rgb(4,30,66);fill-rule:nonzero;"/>
        <path d="M684.181,207.073L670.034,207.073L670.034,242.084L658.168,242.084L658.168,207.073L645.129,207.073L645.129,197.751L683.072,197.751L684.181,207.073Z" style="fill:rgb(4,30,66);fill-rule:nonzero;"/>
        <path d="M717.429,242.084L717.429,224.74L701.913,224.74L701.913,242.084L690.047,242.084L690.047,197.751L701.913,197.358L701.913,215.418L717.429,215.418L717.429,197.751L729.295,197.751L729.295,242.084L717.429,242.084Z" style="fill:rgb(4,30,66);fill-rule:nonzero;"/>
        <path d="M323.942,93.289C316.559,93.289 310.553,87.282 310.553,79.9C310.553,72.517 316.559,66.511 323.942,66.511C331.324,66.511 337.331,72.517 337.331,79.9C337.331,87.282 331.324,93.289 323.942,93.289ZM426.208,68.345L349.896,68.345C348.928,68.345 347.993,68.477 347.095,68.701C342.919,60.104 334.124,54.148 323.942,54.148C309.743,54.148 298.19,65.701 298.19,79.9C298.19,94.099 309.743,105.651 323.942,105.651C334.124,105.651 342.919,99.696 347.095,91.098C347.993,91.323 348.928,91.455 349.896,91.455L426.208,91.455C432.59,91.455 437.763,86.281 437.763,79.9C437.763,73.518 432.59,68.345 426.208,68.345Z" style="fill:rgb(217,6,153);fill-rule:nonzero;"/>
        <path d="M323.942,240.551C316.559,240.551 310.553,234.545 310.553,227.162C310.553,219.78 316.559,213.774 323.942,213.774C331.324,213.774 337.331,219.78 337.331,227.162C337.331,234.545 331.324,240.551 323.942,240.551ZM426.208,215.607L349.896,215.607C348.928,215.607 347.993,215.739 347.095,215.964C342.919,207.366 334.124,201.411 323.942,201.411C309.743,201.411 298.19,212.963 298.19,227.162C298.19,241.361 309.743,252.914 323.942,252.914C334.124,252.914 342.919,246.958 347.095,238.361C347.993,238.585 348.928,238.717 349.896,238.717L426.208,238.717C432.59,238.717 437.763,233.544 437.763,227.162C437.763,220.781 432.59,215.607 426.208,215.607Z" style="fill:rgb(217,6,153);fill-rule:nonzero;"/>
        <path d="M53.731,167.646L100.404,167.67L133.104,73.53L195.765,265.869L261.403,120.378L280.847,167.67L426.195,167.67C432.584,167.67 437.763,162.491 437.763,156.102C437.763,149.714 432.584,144.535 426.195,144.535L296.349,144.535L262.389,61.934L199.252,201.882L133.807,0.998L83.948,144.535L60.943,144.535" style="fill:rgb(217,6,153);fill-rule:nonzero;"/>
        <path d="M25.751,169.41C18.368,169.41 12.362,163.404 12.362,156.021C12.362,148.639 18.368,142.632 25.751,142.632C33.134,142.632 39.14,148.639 39.14,156.021C39.14,163.404 33.134,169.41 25.751,169.41ZM77.987,144.466L51.705,144.466C50.737,144.466 49.802,144.598 48.904,144.822C44.728,136.225 35.933,130.27 25.751,130.27C11.552,130.27 0,141.822 0,156.021C0,170.22 11.552,181.773 25.751,181.773C35.933,181.773 44.728,175.817 48.904,167.22C49.803,167.444 50.737,167.576 51.705,167.576L77.987,167.576C84.369,167.576 89.542,162.403 89.542,156.021C89.542,149.64 84.369,144.466 77.987,144.466Z" style="fill:rgb(217,6,153);fill-rule:nonzero;"/>
    </g>
</svg>
