<svg fill="currentColor" xmlns="http://www.w3.org/2000/svg" width="800px" height="800px" viewBox="0 0 922 922">
	<g>
		<path d="M922,453V81c0-11.046-8.954-20-20-20H410c-11.045,0-20,8.954-20,20v149h318c24.812,0,45,20.187,45,45v198h149
		C913.046,473.001,922,464.046,922,453z" />
		<path d="M557,667.001h151c11.046,0,20-8.954,20-20v-174v-198c0-11.046-8.954-20-20-20H390H216c-11.045,0-20,8.954-20,20v149h194
		h122c24.812,0,45,20.187,45,45v4V667.001z" />
		<path d="M0,469v372c0,11.046,8.955,20,20,20h492c11.046,0,20-8.954,20-20V692v-12.501V667V473v-4c0-11.046-8.954-20-20-20H390H196
		h-12.5H171H20C8.955,449,0,457.955,0,469z" />
	</g>
</svg>
